<?xml version="1.0" encoding="UTF-8"?>
<svg xmlns="http://www.w3.org/2000/svg" id="Icon_export" viewBox="0 0 48 48">
  <path d="m39.5,40h-9.551c-.232-1.14-1.242-2-2.449-2h-3v-7c0-.276-.224-.5-.5-.5s-.5.224-.5.5v7h-3c-1.208,0-2.217.86-2.449,2h-9.551c-.276,0-.5.224-.5.5s.224.5.5.5h9.551c.232,1.14,1.242,2,2.449,2h7c1.208,0,2.217-.86,2.449-2h9.551c.276,0,.5-.224.5-.5s-.224-.5-.5-.5Zm-12,2h-7c-.827,0-1.5-.673-1.5-1.5s.673-1.5,1.5-1.5h7c.827,0,1.5.673,1.5,1.5s-.673,1.5-1.5,1.5Z" style="fill:#001b41;"></path>
  <path d="m35,10h-.474c-2.169-4.157-6.512-7-11.526-7-7.18,0-13,5.82-13,13-4.418,0-8,3.582-8,8s3.582,8,8,8h25c6.075,0,11-4.925,11-11s-4.925-11-11-11Z" style="fill:#95caeb; fill-rule:evenodd;"></path>
  <path d="m12,24h24v8H12v-8Z" style="fill:#001b41;"></path>
  <path d="m23.5,28.5h-9c-.276,0-.5-.224-.5-.5s.224-.5.5-.5h9c.276,0,.5.224.5.5s-.224.5-.5.5Z" style="fill:#95caeb;"></path>
  <path d="m32,30c-1.103,0-2-.897-2-2s.897-2,2-2,2,.897,2,2-.897,2-2,2Zm0-3c-.552,0-1,.448-1,1s.448,1,1,1,1-.448,1-1-.448-1-1-1Z" style="fill:#95caeb;"></path>
  <path d="m12,18c0-1.105.895-2,2-2h20c1.105,0,2,.895,2,2v6H12v-6Z" style="fill:#1474c4;"></path>
  <path d="m23.5,20.5h-9c-.276,0-.5-.224-.5-.5s.224-.5.5-.5h9c.276,0,.5.224.5.5s-.224.5-.5.5Z" style="fill:#fff;"></path>
  <path d="m32,22c-1.103,0-2-.897-2-2s.897-2,2-2,2,.897,2,2-.897,2-2,2Zm0-3c-.552,0-1,.449-1,1s.448,1,1,1,1-.449,1-1-.448-1-1-1Z" style="fill:#fff;"></path>
  <rect width="48" height="48" style="fill:none;"></rect>
</svg>
