<?xml version="1.0" encoding="UTF-8"?>
<svg xmlns="http://www.w3.org/2000/svg" id="Icon_export" viewBox="0 0 48 48">
  <path d="m35,11h-.474c-2.169-4.157-6.512-7-11.526-7-7.18,0-13,5.82-13,13-4.418,0-8,3.582-8,8s3.582,8,8,8h25c6.075,0,11-4.925,11-11s-4.925-11-11-11Z" style="fill:#95caeb; fill-rule:evenodd;"></path>
  <path d="m24,44c6.627,0,12-5.373,12-12s-5.373-12-12-12-12,5.373-12,12,5.373,12,12,12Z" style="fill:#001b41;"></path>
  <path d="m24,24c-2.939,0-5.609,1.619-7,4.134v-1.634c0-.276-.224-.5-.5-.5s-.5.224-.5.5v3c0,.276.224.5.5.5h3c.276,0,.5-.224.5-.5s-.224-.5-.5-.5h-1.806c1.15-2.413,3.59-4,6.306-4,3.86,0,7,3.14,7,7s-3.14,7-7,7-7-3.14-7-7c0-.276-.224-.5-.5-.5s-.5.224-.5.5c0,4.411,3.589,8,8,8s8-3.589,8-8-3.589-8-8-8Z" style="fill:#95caeb;"></path>
  <rect width="48" height="48" style="fill:none;"></rect>
</svg>
