<?xml version="1.0" encoding="UTF-8"?>
<svg xmlns="http://www.w3.org/2000/svg" id="iconset-mosaic-sapphire-on-light" viewBox="0 0 48 48">
  <g id="around-the-world">
    <g>
      <path d="M42.5,7c-.276,0-.5,.224-.5,.5v3.866C37.873,5.492,31.204,2,24,2,11.869,2,2,11.869,2,24c0,2.829,.529,5.583,1.574,8.186,.078,.195,.266,.314,.464,.314,.062,0,.125-.011,.186-.036,.256-.103,.381-.394,.278-.65-.996-2.484-1.501-5.113-1.501-7.814C3,12.42,12.42,3,24,3c6.9,0,13.288,3.357,17.224,9h-3.724c-.276,0-.5,.224-.5,.5s.224,.5,.5,.5h5c.276,0,.5-.224,.5-.5V7.5c0-.276-.224-.5-.5-.5Z" style="fill:#001b41;"></path>
      <path d="M44.426,15.814c-.103-.256-.394-.382-.65-.278-.256,.103-.381,.394-.278,.65,.996,2.484,1.501,5.113,1.501,7.814,0,11.58-9.42,21-21,21-6.882,0-13.292-3.361-17.227-9h3.727c.276,0,.5-.224,.5-.5s-.224-.5-.5-.5H5.5c-.276,0-.5,.224-.5,.5v5c0,.276,.224,.5,.5,.5s.5-.224,.5-.5v-3.864c4.125,5.868,10.816,9.364,18,9.364,12.131,0,22-9.869,22-22,0-2.829-.529-5.583-1.574-8.186Z" style="fill:#001b41;"></path>
    </g>
    <circle cx="24" cy="24" r="14" style="fill:#1474c4;"></circle>
    <path d="M33,24l.002-5-2-2h-3.002l-4,5-5-5,2.001-6.67c-4.245,.927-7.765,3.782-9.609,7.598l5.608,4.072-2,7-3.507,1.254c1.032,2.053,2.543,3.823,4.402,5.147l5.106-6.401h5l2.5,2.5,5.573,2.203c1.783-1.852,3.07-4.186,3.621-6.796l-4.694-2.906Z" style="fill:#95caeb;"></path>
  </g>
</svg>
