<?xml version="1.0" encoding="UTF-8"?>
<svg xmlns="http://www.w3.org/2000/svg" id="Icon_export" viewBox="0 0 48 48">
  <path d="m46,24H2v-11c0-1.105.895-2,2-2h40c1.105,0,2,.895,2,2v11Z" style="fill:#95caeb;"></path>
  <path d="m25.5,18H5.5c-.276,0-.5-.224-.5-.5s.224-.5.5-.5h20c.276,0,.5.224.5.5s-.224.5-.5.5Z" style="fill:#001b41;"></path>
  <rect x="2" y="24" width="44" height="13" style="fill:#1474c4;"></rect>
  <path d="m25.5,31H5.5c-.276,0-.5-.224-.5-.5s.224-.5.5-.5h20c.276,0,.5.224.5.5s-.224.5-.5.5Z" style="fill:#fff;"></path>
  <path d="m39.5,20c-1.379,0-2.5-1.122-2.5-2.5s1.121-2.5,2.5-2.5,2.5,1.122,2.5,2.5-1.121,2.5-2.5,2.5Zm0-4c-.827,0-1.5.673-1.5,1.5s.673,1.5,1.5,1.5,1.5-.673,1.5-1.5-.673-1.5-1.5-1.5Z" style="fill:#001b41;"></path>
  <path d="m39.5,33c-1.379,0-2.5-1.121-2.5-2.5s1.121-2.5,2.5-2.5,2.5,1.121,2.5,2.5-1.121,2.5-2.5,2.5Zm0-4c-.827,0-1.5.673-1.5,1.5s.673,1.5,1.5,1.5,1.5-.673,1.5-1.5-.673-1.5-1.5-1.5Z" style="fill:#fff;"></path>
  <rect width="48" height="48" style="fill:none;"></rect>
</svg>
