<?xml version="1.0" encoding="UTF-8"?>
<svg xmlns="http://www.w3.org/2000/svg" width="64" height="64" viewBox="0 0 64 64" fill="none">
  <path d="M54.6667 8H25.3333C24.597 8 24 8.59695 24 9.33333V22.6667C24 23.403 24.597 24 25.3333 24H54.6667C55.403 24 56 23.403 56 22.6667V9.33333C56 8.59695 55.403 8 54.6667 8Z" fill="#1474C4"></path>
  <path d="M28.8417 18.7631C28.8345 18.6578 28.8483 18.5521 28.8821 18.4521C28.916 18.3521 28.9693 18.2597 29.039 18.1805C29.1155 18.1089 29.2058 18.0539 29.3045 18.0188C29.4031 17.9837 29.5079 17.9693 29.6124 17.9765C29.7181 17.969 29.8242 17.9841 29.9237 18.0206C30.0232 18.0572 30.1139 18.1144 30.1897 18.1885C30.329 18.3464 30.4004 18.5529 30.3884 18.7631C30.4001 18.9774 30.3279 19.1878 30.187 19.3498C30.0279 19.4882 29.824 19.5645 29.613 19.5645C29.4021 19.5645 29.1982 19.4882 29.039 19.3498C28.9004 19.1868 28.8297 18.9768 28.8417 18.7631Z" fill="white"></path>
  <path d="M31.8843 12.1345C31.8782 12.0425 31.891 11.9502 31.922 11.8632C31.953 11.7763 32.0014 11.6967 32.0643 11.6292C32.1335 11.567 32.2144 11.5192 32.3023 11.4888C32.3903 11.4583 32.4834 11.4458 32.5763 11.4519C32.6683 11.4422 32.7613 11.4533 32.8485 11.4842C32.9357 11.5151 33.0149 11.5651 33.0803 11.6305C33.1458 11.6959 33.1957 11.7751 33.2266 11.8623C33.2575 11.9495 33.2686 12.0425 33.2589 12.1345C33.2637 12.2244 33.2502 12.3144 33.2193 12.399C33.1884 12.4835 33.1406 12.5609 33.0789 12.6265C33.0118 12.6891 32.9326 12.7373 32.8461 12.7683C32.7597 12.7992 32.6679 12.8122 32.5763 12.8065C32.4832 12.8126 32.3899 12.7998 32.3019 12.7688C32.2139 12.7379 32.1331 12.6895 32.0643 12.6265C32.0026 12.5609 31.9549 12.4835 31.9239 12.399C31.893 12.3144 31.8795 12.2244 31.8843 12.1345ZM33.1816 19.4212H31.9576V13.6532H33.1816V19.4212Z" fill="white"></path>
  <path d="M40.0042 19.4128H38.7748V15.8662C38.8018 15.5139 38.7078 15.163 38.5082 14.8715C38.4006 14.7555 38.2679 14.6656 38.1202 14.6087C37.9725 14.5519 37.8138 14.5296 37.6562 14.5435C37.4443 14.5253 37.2311 14.5574 37.034 14.6371C36.8368 14.7168 36.6612 14.8419 36.5215 15.0022C36.2405 15.4626 36.1144 16.0009 36.1615 16.5382V19.4128H34.9375V13.6515H35.8962L36.0682 14.4075H36.1308C36.3099 14.1281 36.5666 13.9071 36.8695 13.7715C37.204 13.6186 37.5684 13.5421 37.9362 13.5475C38.2202 13.5102 38.5091 13.5394 38.7799 13.6328C39.0507 13.7263 39.2961 13.8814 39.4967 14.086C39.6972 14.2906 39.8475 14.539 39.9356 14.8116C40.0236 15.0842 40.0471 15.3736 40.0042 15.6568V19.4128Z" fill="white"></path>
  <path d="M44.5905 14.5812H43.1838V19.4145H41.9558V14.5812H41.0078V14.0079L41.9558 13.6332V13.2572C41.9107 12.7099 42.0827 12.1669 42.4345 11.7452C42.6326 11.5677 42.8649 11.4324 43.117 11.3476C43.3692 11.2628 43.636 11.2302 43.9011 11.2519C44.3337 11.2526 44.7631 11.3251 45.1718 11.4665L44.8491 12.3999C44.57 12.3066 44.2781 12.2576 43.9838 12.2545C43.8694 12.2447 43.7543 12.263 43.6485 12.3078C43.5428 12.3527 43.4496 12.4228 43.3771 12.5119C43.2342 12.7433 43.1675 13.0138 43.1865 13.2852V13.6599H44.5931L44.5905 14.5812Z" fill="white"></path>
  <path d="M50.6779 16.5215C50.7253 17.3211 50.4664 18.1087 49.9539 18.7242C49.6948 18.9937 49.3805 19.204 49.0325 19.3407C48.6845 19.4774 48.3111 19.5373 47.9379 19.5162C47.438 19.5259 46.9449 19.3996 46.5112 19.1508C46.0954 18.9057 45.7632 18.541 45.5579 18.1042C45.3267 17.6092 45.2126 17.0677 45.2245 16.5215C45.1761 15.7272 45.4333 14.9444 45.9432 14.3335C46.2043 14.0644 46.5205 13.8548 46.87 13.7191C47.2195 13.5833 47.5942 13.5246 47.9685 13.5468C48.3369 13.528 48.7049 13.5898 49.0469 13.728C49.3889 13.8662 49.6966 14.0774 49.9485 14.3468C50.4599 14.9523 50.7208 15.7302 50.6779 16.5215ZM46.4845 16.5215C46.4845 17.8548 46.9761 18.5215 47.9592 18.5215C48.9423 18.5215 49.4281 17.8548 49.4165 16.5215C49.4165 15.2059 48.9276 14.5477 47.9499 14.5468C47.7354 14.5288 47.52 14.5663 47.3242 14.6557C47.1285 14.7452 46.9592 14.8835 46.8325 15.0575C46.5741 15.5003 46.453 16.0098 46.4845 16.5215Z" fill="white"></path>
  <path d="M46.6654 40H22.6654C21.929 40 21.332 40.597 21.332 41.3333V54.6667C21.332 55.403 21.929 56 22.6654 56H46.6654C47.4017 56 47.9987 55.403 47.9987 54.6667V41.3333C47.9987 40.597 47.4017 40 46.6654 40Z" fill="#95CAEB"></path>
  <path d="M25.5058 50.7614C25.4986 50.656 25.5123 50.5503 25.5462 50.4503C25.58 50.3503 25.6334 50.258 25.7031 50.1787C25.8659 50.0454 26.0701 49.9732 26.2805 49.9746C26.4909 49.9761 26.6942 50.0511 26.8551 50.1867C26.9929 50.3454 27.0636 50.5515 27.0524 50.7614C27.0639 50.9754 26.9923 51.1856 26.8524 51.348C26.7771 51.4227 26.6869 51.4805 26.5876 51.5177C26.4883 51.555 26.3822 51.5708 26.2764 51.564C26.1712 51.5713 26.0656 51.556 25.9667 51.5193C25.8679 51.4825 25.778 51.425 25.7031 51.3507C25.5638 51.1871 25.4931 50.9759 25.5058 50.7614Z" fill="#001B41"></path>
  <path d="M31.5599 45.5479C31.8821 45.5329 32.2032 45.5962 32.4958 45.7323C32.7883 45.8683 33.0436 46.0731 33.2399 46.3292C33.635 46.9953 33.8429 47.7558 33.8415 48.5303C33.8401 49.3048 33.6294 50.0645 33.2319 50.7292C33.0237 50.9761 32.7642 51.1746 32.4713 51.3107C32.1785 51.4469 31.8595 51.5174 31.5365 51.5174C31.2136 51.5174 30.8945 51.4469 30.6017 51.3107C30.3089 51.1746 30.0493 50.9761 29.8412 50.7292H29.7572L29.5332 51.4119H28.6172V43.3079H29.8412V45.2359C29.8412 45.3785 29.8332 45.5892 29.8199 45.8705C29.8065 46.1519 29.7959 46.3319 29.7892 46.4039H29.8412C30.0289 46.1244 30.286 45.8986 30.5873 45.7485C30.8886 45.5984 31.2238 45.5293 31.5599 45.5479ZM31.2425 46.5479C31.0429 46.529 30.8416 46.5586 30.6558 46.6343C30.4701 46.71 30.3054 46.8295 30.1759 46.9825C29.92 47.423 29.8029 47.9305 29.8399 48.4385V48.5225C29.7984 49.0518 29.9143 49.5816 30.1732 50.0452C30.3004 50.2088 30.4668 50.3377 30.6569 50.4202C30.847 50.5027 31.0548 50.536 31.2612 50.5172C31.4567 50.5266 31.6511 50.4838 31.8245 50.3931C31.9979 50.3024 32.1441 50.1671 32.2479 50.0012C32.499 49.5467 32.6155 49.0301 32.5839 48.5119C32.5847 47.2025 32.1376 46.5479 31.2425 46.5479Z" fill="#001B41"></path>
  <path d="M35.1968 44.1327C35.1907 44.0406 35.2035 43.9483 35.2345 43.8614C35.2655 43.7745 35.3139 43.6949 35.3768 43.6274C35.4462 43.565 35.5273 43.5172 35.6155 43.4868C35.7037 43.4563 35.797 43.4438 35.8901 43.45C35.9815 43.4444 36.0731 43.4573 36.1594 43.4877C36.2458 43.5182 36.3251 43.5657 36.3928 43.6274C36.4557 43.6949 36.5041 43.7745 36.535 43.8614C36.566 43.9483 36.5788 44.0406 36.5728 44.1327C36.5776 44.2226 36.5641 44.3126 36.5331 44.3971C36.5022 44.4817 36.4545 44.5591 36.3928 44.6247C36.3255 44.6871 36.2462 44.7352 36.1598 44.7661C36.0735 44.797 35.9817 44.8102 35.8901 44.8047C35.7968 44.8109 35.7033 44.7981 35.6151 44.7671C35.5268 44.7362 35.4458 44.6878 35.3768 44.6247C35.3151 44.5591 35.2674 44.4817 35.2364 44.3971C35.2055 44.3126 35.192 44.2226 35.1968 44.1327ZM36.4941 51.4194H35.2701V45.6514H36.4941V51.4194Z" fill="#001B41"></path>
  <path d="M42.0881 51.4141H37.7188V50.6581L40.6308 46.5901H37.8961V45.6567H42.0054V46.5114L39.1561 50.4754H42.0894L42.0881 51.4141Z" fill="#001B41"></path>
  <path d="M38.6667 24H9.33333C8.59695 24 8 24.597 8 25.3333V38.6667C8 39.403 8.59695 40 9.33333 40H38.6667C39.403 40 40 39.403 40 38.6667V25.3333C40 24.597 39.403 24 38.6667 24Z" fill="#001B41"></path>
  <path d="M11.9355 34.017C11.9282 33.9114 11.9418 33.8054 11.9757 33.7052C12.0096 33.605 12.063 33.5124 12.1329 33.433C12.2096 33.3619 12.3 33.3072 12.3986 33.2724C12.4972 33.2375 12.6019 33.2232 12.7062 33.2303C12.8118 33.223 12.9178 33.238 13.0172 33.2743C13.1167 33.3106 13.2074 33.3674 13.2835 33.441C13.4221 33.5998 13.4934 33.8064 13.4822 34.017C13.494 34.2309 13.4217 34.4409 13.2809 34.6023C13.1217 34.7407 12.9178 34.817 12.7069 34.817C12.4959 34.817 12.292 34.7407 12.1329 34.6023C11.9944 34.4397 11.9238 34.2302 11.9355 34.017Z" fill="#95CAEB"></path>
  <path d="M17.3731 34.7725C17.0064 34.7979 16.6385 34.7428 16.2953 34.6111C15.9522 34.4793 15.6419 34.2741 15.3864 34.0099C14.8957 33.3894 14.6533 32.6085 14.7064 31.8192C14.6524 31.0117 14.9063 30.2137 15.4171 29.5859C15.6824 29.3154 16.003 29.1054 16.3569 28.9701C16.7108 28.8348 17.0897 28.7774 17.4677 28.8019C18.0325 28.7926 18.5925 28.9078 19.1077 29.1392L18.7384 30.1245C18.3328 29.9481 17.8988 29.8456 17.4571 29.8219C16.4615 29.8219 15.9633 30.4832 15.9624 31.8059C15.9256 32.3187 16.0562 32.8296 16.3344 33.2619C16.4635 33.4252 16.6303 33.5548 16.8205 33.6396C17.0107 33.7243 17.2186 33.7617 17.4264 33.7485C17.9679 33.751 18.5007 33.6132 18.9731 33.3485V34.4152C18.7554 34.5428 18.5193 34.6359 18.2731 34.6912C17.9768 34.75 17.6751 34.7773 17.3731 34.7725Z" fill="#95CAEB"></path>
  <path d="M25.4396 31.7744C25.4871 32.574 25.2282 33.3617 24.7156 33.9771C24.4565 34.2466 24.1422 34.4569 23.7942 34.5936C23.4462 34.7303 23.0728 34.7902 22.6996 34.7691C22.1998 34.7792 21.7067 34.6534 21.2729 34.4051C20.8571 34.16 20.5249 33.7952 20.3196 33.3584C20.0884 32.863 19.9744 32.321 19.9862 31.7744C19.9379 30.9801 20.195 30.1974 20.7049 29.5864C20.9661 29.3175 21.2823 29.1081 21.6318 28.9726C21.9814 28.8371 22.356 28.7786 22.7302 28.8011C23.0986 28.7828 23.4664 28.8449 23.8083 28.983C24.1503 29.1212 24.458 29.3321 24.7102 29.6011C25.221 30.2063 25.4819 30.9836 25.4396 31.7744ZM21.2462 31.7744C21.2462 33.1078 21.7378 33.7744 22.7209 33.7744C23.704 33.7744 24.1898 33.1078 24.1782 31.7744C24.1782 30.458 23.6894 29.8002 22.7116 29.8011C22.4973 29.7829 22.2819 29.8202 22.0862 29.9094C21.8905 29.9986 21.721 30.1367 21.5942 30.3104C21.3359 30.7532 21.2148 31.2627 21.2462 31.7744Z" fill="#95CAEB"></path>
  <path d="M31.6984 34.6662H30.4691V31.1142C30.4951 30.767 30.4076 30.4207 30.2197 30.1275C30.1249 30.0149 30.0045 29.9266 29.8686 29.87C29.7327 29.8134 29.5852 29.7902 29.4384 29.8022C29.2405 29.7869 29.042 29.8209 28.8605 29.9012C28.679 29.9815 28.5202 30.1055 28.3984 30.2622C28.1393 30.73 28.0243 31.2639 28.0677 31.7969V34.6662H26.8438V28.9062H27.8024L27.9744 29.6609H28.0371C28.199 29.3838 28.4413 29.1625 28.7317 29.0262C29.0431 28.8745 29.3854 28.7969 29.7317 28.7995C30.0824 28.7556 30.4381 28.8184 30.7523 28.98C31.0666 29.1415 31.3248 29.3942 31.4931 29.7049H31.5757C31.7472 29.4189 31.9964 29.1877 32.2944 29.0382C32.6255 28.8738 32.9915 28.792 33.3611 28.7995C33.6341 28.7749 33.9092 28.8085 34.1683 28.8981C34.4273 28.9878 34.6644 29.1314 34.8637 29.3195C35.2123 29.7726 35.38 30.3391 35.3344 30.9089V34.6662H34.1104V31.1142C34.1361 30.7667 34.0476 30.4202 33.8584 30.1275C33.7628 30.0152 33.6418 29.9271 33.5055 29.8706C33.3693 29.814 33.2215 29.7906 33.0744 29.8022C32.8773 29.7856 32.679 29.8175 32.4971 29.8951C32.3151 29.9727 32.1549 30.0937 32.0304 30.2475C31.7793 30.657 31.6636 31.1352 31.6997 31.6142L31.6984 34.6662Z" fill="#95CAEB"></path>
</svg>
