<?xml version="1.0" encoding="UTF-8"?>
<svg xmlns="http://www.w3.org/2000/svg" id="iconset-mosaic-sapphire-on-light" viewBox="0 0 48 48">
  <g id="employees">
    <g>
      <path d="M46,32c0-4.971-2.936-9-10-9s-10,4.029-10,9h20Z" style="fill:#001b41;"></path>
      <path d="M42,15c0,3.314-2.686,6-6,6s-6-2.686-6-6h12Z" style="fill:#95caeb;"></path>
      <path d="M30,15c0-3.314,2.686-6,6-6s6,2.686,6,6h-12Z" style="fill:#1474c4;"></path>
      <path d="M41.5,28h-3c-.276,0-.5-.224-.5-.5s.224-.5,.5-.5h3c.276,0,.5,.224,.5,.5s-.224,.5-.5,.5Z" style="fill:#95caeb;"></path>
    </g>
    <g>
      <path d="M34,40c0-7.731-4.698-13.999-16-13.999S2,32.269,2,40H34Z" style="fill:#1474c4;"></path>
      <path d="M27,15c0,4.971-4.029,9-9,9s-9-4.029-9-9H27Z" style="fill:#95caeb;"></path>
      <path d="M9,15c0-4.971,4.029-9,9-9s9,4.029,9,9H9Z" style="fill:#001b41;"></path>
      <path d="M26.5,33h-4c-.276,0-.5-.224-.5-.5s.224-.5,.5-.5h4c.276,0,.5,.224,.5,.5s-.224,.5-.5,.5Z" style="fill:#fff;"></path>
    </g>
  </g>
</svg>
