<?xml version="1.0" encoding="UTF-8"?>
<svg xmlns="http://www.w3.org/2000/svg" id="iconset-mosaic-sapphire-on-light" viewBox="0 0 48 48">
  <g id="dedicated-server-pro">
    <rect x="2" y="24" width="44" height="12" style="fill:#1474c4;"></rect>
    <path d="M24,30.5H6c-.276,0-.5-.224-.5-.5s.224-.5,.5-.5H24c.276,0,.5,.224,.5,.5s-.224,.5-.5,.5Z" style="fill:#fff;"></path>
    <path d="M40,32.5c-1.379,0-2.5-1.122-2.5-2.5s1.121-2.5,2.5-2.5,2.5,1.122,2.5,2.5-1.121,2.5-2.5,2.5Zm0-4c-.827,0-1.5,.673-1.5,1.5s.673,1.5,1.5,1.5,1.5-.673,1.5-1.5-.673-1.5-1.5-1.5Z" style="fill:#fff;"></path>
    <path d="M4,12H44c1.104,0,2,.896,2,2v10H2V14c0-1.104,.896-2,2-2Z" style="fill:#95caeb;"></path>
    <path d="M24,18.5H6c-.276,0-.5-.224-.5-.5s.224-.5,.5-.5H24c.276,0,.5,.224,.5,.5s-.224,.5-.5,.5Z" style="fill:#001b41;"></path>
    <path d="M40,20.5c-1.379,0-2.5-1.122-2.5-2.5s1.121-2.5,2.5-2.5,2.5,1.122,2.5,2.5-1.121,2.5-2.5,2.5Zm0-4c-.827,0-1.5,.673-1.5,1.5s.673,1.5,1.5,1.5,1.5-.673,1.5-1.5-.673-1.5-1.5-1.5Z" style="fill:#001b41;"></path>
  </g>
</svg>
