<?xml version="1.0" encoding="UTF-8"?>
<svg xmlns="http://www.w3.org/2000/svg" id="Icon_export" viewBox="0 0 48 48">
  <path d="m4.502,31.813c.103.257-.021.548-.277.65-.062.024-.124.036-.187.036-.198,0-.386-.118-.464-.313-1.045-2.604-1.574-5.357-1.574-8.187C2,11.869,11.869,2,24,2c7.204,0,13.874,3.492,18,9.366v-3.866c0-.276.224-.5.5-.5s.5.224.5.5v5c0,.276-.224.5-.5.5h-5c-.276,0-.5-.224-.5-.5s.224-.5.5-.5h3.724c-3.936-5.643-10.323-9-17.224-9C12.421,3,3,12.42,3,24c0,2.701.506,5.33,1.502,7.813Zm39.924-16c-.104-.256-.394-.382-.65-.278-.256.103-.38.394-.277.65.996,2.484,1.502,5.113,1.502,7.814,0,11.579-9.421,21-21,21-6.9,0-13.287-3.357-17.224-9h3.724c.276,0,.5-.224.5-.5s-.224-.5-.5-.5h-5c-.276,0-.5.224-.5.5v5c0,.276.224.5.5.5s.5-.224.5-.5v-3.866c4.126,5.874,10.796,9.366,18,9.366,12.131,0,22-9.869,22-22,0-2.829-.529-5.583-1.574-8.186Z" style="fill:#001b41;"></path>
  <circle cx="24" cy="24" r="16" style="fill:#95caeb;"></circle>
  <path d="m32.68,19.256c1.233,2.263,1.536,4.917.844,7.399-.692,2.482-2.325,4.596-4.552,5.894l3.021-8.733c.479-1.121.734-2.324.751-3.542.001-.34-.02-.68-.064-1.017Zm-7.316.096c.593-.028,1.13-.096,1.13-.096.054-.004.107-.019.156-.043s.092-.058.127-.099c.035-.041.062-.089.079-.14.017-.052.024-.106.02-.16-.004-.054-.019-.107-.043-.156-.024-.049-.058-.092-.099-.127-.041-.035-.089-.062-.14-.079s-.106-.024-.16-.02c0,0-1.609.124-2.64.124-.976,0-2.613-.138-2.613-.138-.108-.009-.215.025-.297.094-.083.07-.134.169-.143.277-.009.108.025.215.094.297.07.083.169.134.277.143,0,0,.495.055,1.032.083l1.54,4.221-2.173,6.49-3.601-10.697c.595-.028,1.131-.091,1.131-.091.105-.013.201-.066.267-.148.067-.082.1-.186.093-.291-.008-.105-.055-.204-.133-.275-.078-.071-.18-.11-.286-.108,0,0-1.601.126-2.64.126-.184,0-.401-.008-.632-.013.917-1.356,2.152-2.468,3.598-3.237,1.446-.769,3.058-1.172,4.695-1.174,2.473-.004,4.858.923,6.679,2.596-.043,0-.084-.008-.13-.008-.452.014-.881.206-1.193.535-.311.329-.48.767-.468,1.22.104.848.44,1.651.971,2.32.521.816.803,1.761.816,2.729-.102,1.093-.356,2.166-.752,3.19l-.99,3.287-3.575-10.642.006.011Zm-1.364,14.534c-.946,0-1.886-.134-2.794-.4l2.97-8.623,3.039,8.33c.022.048.046.092.072.136-1.055.37-2.165.558-3.284.558h-.003Zm-9.89-9.887c-.001-1.387.291-2.758.857-4.024l4.716,12.924c-1.67-.812-3.078-2.077-4.064-3.65-.985-1.574-1.508-3.393-1.509-5.25Zm9.89-11c-2.176,0-4.302.645-6.111,1.854-1.809,1.209-3.219,2.927-4.051,4.937-.833,2.01-1.05,4.222-.626,6.355.424,2.134,1.472,4.094,3.01,5.632,1.538,1.538,3.498,2.586,5.632,3.01,2.134.424,4.345.207,6.355-.626,2.01-.833,3.728-2.243,4.937-4.051,1.209-1.809,1.854-3.936,1.854-6.111-.004-2.916-1.164-5.712-3.226-7.774-2.062-2.062-4.858-3.222-7.774-3.226Z" style="fill:#001b41;"></path>
  <rect width="48" height="48" style="fill:none;"></rect>
</svg>
